<svg class="svg-icon" style="width: 1em; height: 1em;vertical-align: middle;fill: currentColor;overflow: hidden;" viewBox="0 0 1024 1024" version="1.1" xmlns="http://www.w3.org/2000/svg"><path d="M791.916992 964.980092h-662.961296a29.464946 29.464946 0 0 1-29.464947-29.464947V88.397933a29.464946 29.464946 0 0 1 29.464947-29.464946h427.241724v213.620862a88.394839 88.394839 0 0 0 88.394839 88.394839h206.254626v175.24277a29.464946 29.464946 0 1 0 58.929893 0V331.483742v-0.441974a25.855491 25.855491 0 0 0-0.515637-5.303691v-0.95761a31.380168 31.380168 0 0 0-1.25226-3.977768l-0.662961-1.54691a30.127908 30.127908 0 0 0-1.84156-3.388469 10.312731 10.312731 0 0 0-0.736623-1.178598 24.676893 24.676893 0 0 0-3.09382-3.75678l-294.649465-302.015702-0.662961-0.662961a29.022972 29.022972 0 0 0-3.756781-2.79917l-1.325922-0.883948a27.623387 27.623387 0 0 0-3.241144-1.767897L596.711721 2.139302a29.464946 29.464946 0 0 0-4.935378-1.546909 22.09871 22.09871 0 0 0-5.451015-0.589299H128.955696a88.394839 88.394839 0 0 0-88.39484 88.394839v847.117212a88.394839 88.394839 0 0 0 88.39484 88.39484h662.961296a29.464946 29.464946 0 0 0 0-58.929893z m-147.324733-662.961297a29.464946 29.464946 0 0 1-29.464946-29.464946V101.878146L810.332583 302.018795z" fill="#333333" /><path d="M453.070107 182.6121h-257.818282a29.464946 29.464946 0 0 0 0 58.929893h257.818282a29.464946 29.464946 0 0 0 0-58.929893zM482.535054 403.599198a29.464946 29.464946 0 0 0-29.464947-29.464946h-257.818282a29.464946 29.464946 0 1 0 0 58.929893h257.818282a29.464946 29.464946 0 0 0 29.464947-29.464947zM357.309031 565.656404h-162.057206a29.464946 29.464946 0 0 0 0 58.929893h162.057206a29.464946 29.464946 0 1 0 0-58.929893zM357.309031 757.178556h-162.057206a29.464946 29.464946 0 0 0 0 58.929893h162.057206a29.464946 29.464946 0 1 0 0-58.929893zM974.820647 973.598588L840.828803 839.754069a191.522152 191.522152 0 1 0-41.619237 41.619237l133.918182 133.991844a29.464946 29.464946 0 0 0 41.692899-41.692899z m-419.875487-246.474277a132.076623 132.076623 0 1 1 132.00296 132.076623 132.150285 132.150285 0 0 1-132.29761-132.076623z" fill="#333333" /></svg>